<svg viewBox="0 0 1775 276">
  <g filter="url(#filter0_d_2_3)">
    <path
      d="M73.8129 0.800348C72.4343 1.50313 67.322 10.1707 45.5515 48.8236C30.9612 74.7679 14.7051 103.523 9.47792 112.777C3.79117 122.791 0 130.17 0 131.107C0 131.927 1.89558 135.91 4.2507 140.068C6.60582 144.167 22.6321 172.513 39.8073 203.142C57.0399 233.713 71.745 259.482 72.5492 260.419L74.0427 262H220.06L221.554 260.36C222.358 259.482 237.637 232.835 255.444 201.092C273.309 169.35 289.278 141.005 291.001 138.018C294.39 132.103 294.735 130.405 292.896 127.359C291.805 125.544 224.138 5.36841 222.932 3.20151C222.702 2.73299 221.841 1.85452 221.094 1.26887C219.773 0.214698 216.384 0.156134 147.626 0.0390037C84.4971 -0.0781261 75.3064 0.0390033 73.8129 0.800348V0.800348ZM208.17 13.2161C207.94 13.9775 203.402 25.8661 198.002 39.6289C191.109 57.3741 188.065 64.6361 187.491 64.4019C186.342 63.9334 100.294 13.0404 99.7192 12.4548C99.3746 12.1619 120.628 11.9277 153.887 11.9277H208.572L208.17 13.2161V13.2161ZM126.372 42.5572C149.292 56.0857 170.545 68.6771 173.647 70.4926L179.334 73.8894L165.892 82.147C105.119 119.629 74.3873 138.252 74.2724 137.667C74.1576 137.081 81.9122 17.1985 82.0845 16.73C82.1994 16.4958 82.8887 16.8471 126.372 42.5572V42.5572ZM245.22 67.5058C259.465 92.7473 271.069 113.479 270.954 113.596C270.896 113.714 254.755 104.285 235.225 92.7473C215.637 81.1514 199.381 71.6054 199.094 71.4882C198.807 71.3711 203.057 59.7752 208.514 45.7197C214.316 30.7856 218.682 20.4196 218.911 20.8296C219.141 21.2395 230.974 42.2643 245.22 67.5058V67.5058ZM65.771 81.62C61.9224 141.766 61.9799 141.356 61.5203 141.356C60.4864 141.473 15.5093 127.535 15.5093 127.125C15.5093 126.539 68.5282 32.4254 68.758 32.6011C68.8155 32.7182 67.4943 54.7387 65.771 81.62ZM220.922 98.4281C233.846 106.1 251.883 116.7 260.959 122.03C269.977 127.359 277.387 131.986 277.272 132.337C277.215 132.689 260.097 149.262 239.246 169.175C218.394 189.087 200.128 206.539 198.577 208.003L195.877 210.697L196.164 186.744C196.337 173.508 196.624 145.163 196.796 123.611C197.026 102.118 197.198 84.5482 197.313 84.5482C197.371 84.5482 207.997 90.8147 220.922 98.4281V98.4281ZM184.906 105.456C184.791 149.907 184.101 212.747 183.699 213.098C183.47 213.333 159.918 199.16 131.255 181.649C81.4527 151.195 79.2699 149.79 80.4762 148.97C83.3483 146.978 184.159 85.1924 184.561 85.1339C184.791 85.1339 184.963 94.27 184.906 105.456V105.456ZM41.0136 148.033C52.0424 151.429 61.2331 154.358 61.4629 154.65C61.6927 154.885 63.2436 170.814 64.852 189.965C66.4603 209.116 67.9538 225.573 68.0687 226.568C68.2985 227.681 68.1836 228.091 67.8389 227.74C67.3794 227.271 22.0003 147.154 19.4154 142.352C18.9558 141.415 19.0133 141.298 19.9324 141.59C20.5068 141.766 29.9847 144.694 41.0136 148.033ZM174.451 222.586C173.877 223.171 82.4292 247.886 82.142 247.534C81.7973 247.124 74.6171 165.778 74.6745 162.615C74.6745 161.503 81.6825 165.602 124.592 191.898C152.106 208.706 174.509 222.469 174.451 222.586ZM260.959 166.656C260.327 167.71 250.045 185.924 238.154 207.125C226.206 228.325 216.326 245.543 216.269 245.485C216.211 245.368 212.248 240.858 207.423 235.412C202.655 230.024 198.749 225.338 198.749 225.104C198.749 224.636 261.189 164.782 261.706 164.782C261.878 164.782 261.533 165.661 260.959 166.656V166.656ZM196.164 240.917L203.976 249.701L163.595 249.643C141.365 249.643 123.5 249.467 123.845 249.35C125.798 248.53 187.605 231.722 187.95 231.898C188.18 232.073 191.856 236.114 196.164 240.917V240.917Z" />
    <path
      d="M305.286 204V67.2H419.286C423.466 67.2 427.266 68.2133 430.686 70.24C434.232 72.2667 437.019 75.0533 439.046 78.6C441.072 82.02 442.086 85.82 442.086 90V181.2C442.086 185.38 441.072 189.243 439.046 192.79C437.019 196.21 434.232 198.933 430.686 200.96C427.266 202.987 423.466 204 419.286 204H305.286ZM328.086 188.61H419.286C421.312 188.61 423.022 187.913 424.416 186.52C425.936 185 426.696 183.227 426.696 181.2V90C426.696 87.9733 425.936 86.2633 424.416 84.87C423.022 83.35 421.312 82.59 419.286 82.59H328.086C326.059 82.59 324.286 83.35 322.766 84.87C321.372 86.2633 320.676 87.9733 320.676 90V181.2C320.676 183.227 321.372 185 322.766 186.52C324.286 187.913 326.059 188.61 328.086 188.61ZM455.763 204V67.2H471.343V204H455.763ZM507.797 204C503.617 204 499.754 202.987 496.207 200.96C492.787 198.933 490.064 196.21 488.037 192.79C486.011 189.243 484.997 185.38 484.997 181.2V90C484.997 85.82 486.011 82.02 488.037 78.6C490.064 75.0533 492.787 72.2667 496.207 70.24C499.754 68.2133 503.617 67.2 507.797 67.2H621.417V82.59H507.797C505.771 82.59 503.997 83.35 502.477 84.87C501.084 86.2633 500.387 87.9733 500.387 90V181.2C500.387 183.227 501.084 185 502.477 186.52C503.997 187.913 505.771 188.61 507.797 188.61H621.417V204H507.797ZM632.108 204V67.2H756.938V82.59H647.498V127.81H735.468V143.39H647.498V188.61H756.938V204H632.108ZM821.657 204V82.59H760.857V67.2H897.657V82.59H837.047V204H821.657ZM1017.89 204L973.237 150.8H993.377L1038.22 203.81V204H1017.89ZM902.367 204V67.39H1016.37C1020.55 67.39 1024.35 68.4667 1027.77 70.62C1031.31 72.6467 1034.1 75.37 1036.13 78.79C1038.15 82.21 1039.17 86.01 1039.17 90.19V130.28C1039.17 134.46 1038.15 138.26 1036.13 141.68C1034.1 145.1 1031.31 147.887 1027.77 150.04C1024.35 152.067 1020.55 153.08 1016.37 153.08H917.757V204H902.367ZM925.167 137.5H1016.37C1018.39 137.5 1020.1 136.803 1021.5 135.41C1023.02 134.017 1023.78 132.307 1023.78 130.28V90.19C1023.78 88.1633 1023.02 86.4533 1021.5 85.06C1020.1 83.54 1018.39 82.78 1016.37 82.78H925.167C923.14 82.78 921.367 83.54 919.847 85.06C918.453 86.4533 917.757 88.1633 917.757 90.19V130.28C917.757 132.307 918.453 134.017 919.847 135.41C921.367 136.803 923.14 137.5 925.167 137.5ZM1050.03 204V90C1050.03 85.82 1051.05 82.02 1053.07 78.6C1055.1 75.0533 1057.82 72.2667 1061.24 70.24C1064.79 68.2133 1068.65 67.2 1072.83 67.2H1164.03C1168.21 67.2 1172.01 68.2133 1175.43 70.24C1178.98 72.2667 1181.77 75.0533 1183.79 78.6C1185.82 82.02 1186.83 85.82 1186.83 90V204H1171.44V154.03H1065.42V204H1050.03ZM1065.42 138.64H1171.44V90C1171.44 87.9733 1170.68 86.2633 1169.16 84.87C1167.77 83.35 1166.06 82.59 1164.03 82.59H1072.83C1070.81 82.59 1069.03 83.35 1067.51 84.87C1066.12 86.2633 1065.42 87.9733 1065.42 90V138.64ZM1221.78 204C1217.6 204 1213.74 202.987 1210.19 200.96C1206.77 198.933 1204.05 196.21 1202.02 192.79C1200 189.243 1198.98 185.38 1198.98 181.2V90C1198.98 85.82 1200 82.02 1202.02 78.6C1204.05 75.0533 1206.77 72.2667 1210.19 70.24C1213.74 68.2133 1217.6 67.2 1221.78 67.2H1335.4V82.59H1221.78C1219.76 82.59 1217.98 83.35 1216.46 84.87C1215.07 86.2633 1214.37 87.9733 1214.37 90V181.2C1214.37 183.227 1215.07 185 1216.46 186.52C1217.98 187.913 1219.76 188.61 1221.78 188.61H1335.4V204H1221.78ZM1345.9 204V67.2H1361.48V127.81H1405.56L1456.48 67.2H1476.24V67.39L1419.05 135.6L1476.43 203.81V204H1456.48L1405.56 143.39H1361.48V204H1345.9ZM1488 204V67.2H1612.83V82.59H1503.39V127.81H1591.36V143.39H1503.39V188.61H1612.83V204H1488ZM1739.11 204L1694.46 150.8H1714.6L1759.44 203.81V204H1739.11ZM1623.59 204V67.39H1737.59C1741.77 67.39 1745.57 68.4667 1748.99 70.62C1752.53 72.6467 1755.32 75.37 1757.35 78.79C1759.37 82.21 1760.39 86.01 1760.39 90.19V130.28C1760.39 134.46 1759.37 138.26 1757.35 141.68C1755.32 145.1 1752.53 147.887 1748.99 150.04C1745.57 152.067 1741.77 153.08 1737.59 153.08H1638.98V204H1623.59ZM1646.39 137.5H1737.59C1739.61 137.5 1741.32 136.803 1742.72 135.41C1744.24 134.017 1745 132.307 1745 130.28V90.19C1745 88.1633 1744.24 86.4533 1742.72 85.06C1741.32 83.54 1739.61 82.78 1737.59 82.78H1646.39C1644.36 82.78 1642.59 83.54 1641.07 85.06C1639.67 86.4533 1638.98 88.1633 1638.98 90.19V130.28C1638.98 132.307 1639.67 134.017 1641.07 135.41C1642.59 136.803 1644.36 137.5 1646.39 137.5Z" />
  </g>
  <defs>
    <filter id="filter0_d_2_3" x="0" y="0" width="1774.39" height="276" filterUnits="userSpaceOnUse"
      color-interpolation-filters="sRGB">
      <feFlood flood-opacity="0" result="BackgroundImageFix" />
      <feColorMatrix in="SourceAlpha" type="matrix" values="0 0 0 0 0 0 0 0 0 0 0 0 0 0 0 0 0 0 127 0"
        result="hardAlpha" />
      <feOffset dx="10" dy="10" />
      <feGaussianBlur stdDeviation="2" />
      <feComposite in2="hardAlpha" operator="out" />
      <feColorMatrix type="matrix" values="0 0 0 0 0 0 0 0 0 0 0 0 0 0 0 0 0 0 0.25 0" />
      <feBlend mode="normal" in2="BackgroundImageFix" result="effect1_dropShadow_2_3" />
      <feBlend mode="normal" in="SourceGraphic" in2="effect1_dropShadow_2_3" result="shape" />
    </filter>
  </defs>
</svg>