<svg width="512" height="512" viewBox="0 0 512 512" fill="none" xmlns="http://www.w3.org/2000/svg">
  <circle cx="256" cy="256" r="256" fill="#5149e4" />
  <g filter="url(#filter0_d_5_5)">
    <path
      d="M168.873 100.953C167.231 101.789 161.145 112.108 135.228 158.123C117.859 189.009 98.5061 223.242 92.2832 234.258C85.5133 246.18 81 254.965 81 256.08C81 257.056 83.2566 261.797 86.0604 266.747C88.8641 271.628 107.943 305.372 128.39 341.836C148.905 378.23 166.411 408.907 167.368 410.022L169.146 411.905H342.976L344.754 409.953C345.712 408.907 363.902 377.184 385.1 339.396C406.368 301.607 425.378 267.863 427.43 264.307C431.464 257.265 431.875 255.244 429.686 251.618C428.387 249.457 347.832 106.391 346.395 103.811C346.122 103.254 345.096 102.208 344.207 101.511C342.634 100.256 338.6 100.186 256.745 100.046C181.592 99.907 170.65 100.046 168.873 100.953V100.953ZM328.821 115.733C328.547 116.64 323.145 130.793 316.717 147.177C308.511 168.302 304.887 176.948 304.203 176.669C302.835 176.111 200.397 115.524 199.713 114.827C199.303 114.479 224.605 114.2 264.199 114.2H329.3L328.821 115.733V115.733ZM231.443 150.663C258.728 166.769 284.03 181.758 287.723 183.92L294.493 187.964L278.491 197.794C206.141 242.415 169.556 264.586 169.42 263.889C169.283 263.192 178.515 120.474 178.72 119.917C178.856 119.638 179.677 120.056 231.443 150.663V150.663ZM372.928 180.364C389.887 210.413 403.701 235.094 403.564 235.234C403.496 235.373 384.28 224.148 361.029 210.413C337.711 196.609 318.358 185.244 318.016 185.105C317.675 184.966 322.735 171.161 329.231 154.428C336.138 136.65 341.335 124.309 341.609 124.797C341.882 125.285 355.969 150.315 372.928 180.364V180.364ZM159.299 197.167C154.717 268.769 154.786 268.281 154.238 268.281C153.008 268.421 99.4635 251.827 99.4635 251.339C99.4635 250.642 162.581 138.602 162.855 138.811C162.923 138.95 161.35 165.165 159.299 197.167ZM344.002 217.176C359.388 226.31 380.861 238.929 391.665 245.274C402.401 251.618 411.223 257.126 411.086 257.544C411.018 257.963 390.639 277.693 365.816 301.398C340.993 325.103 319.247 345.88 317.401 347.623L314.187 350.83L314.529 322.314C314.734 306.558 315.076 272.813 315.281 247.156C315.555 221.569 315.76 200.653 315.897 200.653C315.965 200.653 328.616 208.113 344.002 217.176V217.176ZM301.126 225.543C300.989 278.46 300.168 353.27 299.69 353.688C299.416 353.967 271.379 337.095 237.256 316.249C177.967 279.994 175.369 278.321 176.805 277.345C180.224 274.974 300.237 201.42 300.715 201.35C300.989 201.35 301.194 212.226 301.126 225.543V225.543ZM129.826 276.229C142.955 280.273 153.897 283.759 154.17 284.108C154.444 284.387 156.29 303.35 158.205 326.149C160.119 348.947 161.897 368.539 162.034 369.724C162.308 371.049 162.171 371.537 161.761 371.118C161.214 370.561 107.191 275.183 104.114 269.466C103.566 268.351 103.635 268.211 104.729 268.56C105.413 268.769 116.696 272.255 129.826 276.229ZM288.68 364.983C287.996 365.68 179.13 395.102 178.788 394.684C178.378 394.196 169.83 297.355 169.898 293.59C169.898 292.265 178.241 297.145 229.323 328.45C262.079 348.459 288.748 364.844 288.68 364.983ZM391.665 298.4C390.913 299.655 378.672 321.338 364.517 346.577C350.293 371.816 338.531 392.313 338.463 392.244C338.395 392.104 333.676 386.736 327.932 380.252C322.256 373.838 317.606 368.26 317.606 367.981C317.606 367.423 391.939 296.169 392.554 296.169C392.759 296.169 392.349 297.215 391.665 298.4V298.4ZM314.529 386.805L323.829 397.264L275.756 397.194C249.291 397.194 228.024 396.985 228.434 396.845C230.759 395.869 304.34 375.859 304.75 376.069C305.024 376.278 309.4 381.088 314.529 386.805V386.805Z"
      fill="white" />
  </g>
  <defs>
    <filter id="filter0_d_5_5" x="81" y="100" width="368" height="334.905" filterUnits="userSpaceOnUse"
      color-interpolation-filters="sRGB">
      <feFlood flood-opacity="0" result="BackgroundImageFix" />
      <feColorMatrix in="SourceAlpha" type="matrix" values="0 0 0 0 0 0 0 0 0 0 0 0 0 0 0 0 0 0 127 0"
        result="hardAlpha" />
      <feOffset dx="14" dy="19" />
      <feGaussianBlur stdDeviation="2" />
      <feComposite in2="hardAlpha" operator="out" />
      <feColorMatrix type="matrix" values="0 0 0 0 0 0 0 0 0 0 0 0 0 0 0 0 0 0 0.25 0" />
      <feBlend mode="normal" in2="BackgroundImageFix" result="effect1_dropShadow_5_5" />
      <feBlend mode="normal" in="SourceGraphic" in2="effect1_dropShadow_5_5" result="shape" />
    </filter>
  </defs>
</svg>