<svg width="1739" height="168" viewBox="0 0 1739 168" fill="none" xmlns="http://www.w3.org/2000/svg">
  <g filter="url(#filter0_d_2_6)">
    <path
      d="M6.28708 70.0623C4.73594 72.8019 3.43983 75.1871 2.52929 76.9565C2.07469 77.8399 1.71136 78.5791 1.4595 79.1363C1.33419 79.4135 1.23053 79.6587 1.15621 79.8607C1.11922 79.9613 1.08475 80.0638 1.05832 80.162C1.03672 80.2422 1 80.3911 1 80.5586C1 80.7628 1.05078 80.9589 1.08585 81.0807C1.12769 81.2261 1.18418 81.3865 1.24841 81.5528C1.37743 81.8867 1.55775 82.2957 1.77222 82.7486C2.20245 83.6572 2.7923 84.7895 3.44255 85.941L3.44558 85.9463C4.72429 88.1786 13.4436 103.645 22.791 120.363L22.7921 120.365C27.4818 128.709 31.8281 136.398 35.057 142.066C36.6713 144.9 38.0073 147.23 38.9677 148.885C39.4476 149.712 39.8354 150.373 40.1179 150.845C40.2588 151.08 40.3761 151.273 40.4666 151.417C40.5377 151.53 40.637 151.687 40.7228 151.787L40.7382 151.805L40.7546 151.823L41.5673 152.686L41.8634 153H42.2953H121.761H122.203L122.501 152.672L123.312 151.779C123.411 151.67 123.521 151.499 123.59 151.39C123.683 151.243 123.805 151.046 123.95 150.805C124.242 150.321 124.644 149.641 125.141 148.788C126.136 147.083 127.521 144.675 129.194 141.743C132.54 135.879 137.043 127.91 141.89 119.245C151.615 101.916 160.3 86.4531 161.235 84.8291L161.236 84.8265C162.146 83.2345 162.747 82.0508 162.934 81.0122C163.146 79.8443 162.828 78.9469 162.256 77.9972L162.253 77.9924L162.244 77.9761L162.213 77.922L162.189 77.8799C162.167 77.8414 162.14 77.7948 162.109 77.7403C162.023 77.5882 161.903 77.3767 161.752 77.1094C161.45 76.5749 161.024 75.8195 160.491 74.8742C159.426 72.9839 157.937 70.3361 156.164 67.1827C152.617 60.8758 147.938 52.5471 143.257 44.2123C133.964 27.6677 124.668 11.1056 124.207 10.2784C124.068 10.0094 123.833 9.74252 123.651 9.55231C123.438 9.32956 123.186 9.09876 122.944 8.90863C122.522 8.57242 122.014 8.44591 121.133 8.35877C120.228 8.26928 118.722 8.20916 116.111 8.16527C110.873 8.07721 101.047 8.05325 82.3423 8.02129C65.1668 7.98933 55.3203 7.9893 49.6662 8.04931C46.8422 8.07929 45.047 8.12436 43.902 8.1892C43.3308 8.22155 42.9003 8.2599 42.5752 8.30767C42.2718 8.35226 41.9692 8.41654 41.7151 8.54645C41.4217 8.69646 41.1842 8.95875 41.0086 9.1715C40.8061 9.41699 40.5679 9.74784 40.2847 10.1727C39.7163 11.0251 38.9158 12.3325 37.7793 14.2687C35.5032 18.1463 31.8409 24.6119 25.918 35.1583L25.9177 35.1589C18.8624 47.7411 11.0912 61.5349 7.45127 67.9957C6.99516 68.8053 6.60392 69.4998 6.28708 70.0623ZM6.28708 70.0623C6.28734 70.0618 6.2876 70.0613 6.28786 70.0609L7.15805 70.5536M6.28708 70.0623C6.28698 70.0624 6.28687 70.0626 6.28676 70.0628L7.15805 70.5536M7.15805 70.5536C7.47497 69.991 7.86637 69.2962 8.32271 68.4862C11.9627 62.0253 19.7342 48.2309 26.7899 35.648L141.017 118.757C131.326 136.082 123.011 150.626 122.573 151.105L121.761 152H42.2953L41.4826 151.137C41.0449 150.626 33.0421 136.561 23.6638 119.875C14.3168 103.158 5.59501 87.6867 4.31331 85.4492C3.03161 83.1797 2 81.0061 2 80.5586C2 80.0471 4.06322 76.0196 7.15805 70.5536ZM151.419 81.3387C151.006 81.0596 150.454 80.7021 149.788 80.2814C148.185 79.2697 145.959 77.9169 143.511 76.4656C138.572 73.5571 128.756 67.7712 121.72 63.5826C120.706 62.9836 119.718 62.4 118.77 61.8398C116.429 60.4564 114.328 59.2154 112.671 58.2373C111.737 57.6858 110.944 57.2182 110.328 56.8561C110.309 57.9349 110.287 59.494 110.264 61.4198C110.227 64.4377 110.186 68.3504 110.14 72.7152C110.127 73.937 110.114 75.1943 110.1 76.4772C110.1 76.4774 110.1 76.4776 110.1 76.4777L109.1 76.4671L151.419 81.3387ZM151.419 81.3387C151.181 81.5788 150.887 81.8714 150.542 82.2135C149.49 83.2549 147.971 84.7406 146.096 86.5619C142.347 90.2038 137.183 95.1806 131.51 100.614C128.376 103.615 125.35 106.513 122.594 109.154C115.964 115.504 110.893 120.362 109.629 121.567L109.756 110.938L109.756 110.937L151.419 81.3387ZM59.5919 16.6563C60.8043 16.6334 62.3367 16.6125 64.1608 16.594C69.2868 16.5421 76.6998 16.5101 85.748 16.5101H114.12C114.046 16.7088 113.956 16.9508 113.85 17.2327C113.555 18.0144 113.144 19.0973 112.644 20.4029C111.645 23.0137 110.294 26.5116 108.825 30.2652L108.824 30.2683C106.948 35.1113 105.601 38.5109 104.685 40.6813C104.277 41.6476 103.962 42.3532 103.729 42.8288C103.369 42.6208 102.896 42.3449 102.322 42.009C100.982 41.2252 99.1017 40.1187 96.8605 38.7963C92.3784 36.1518 86.4572 32.6461 80.5454 29.1382C74.6336 25.6303 68.732 22.1207 64.2891 19.4682C62.433 18.3601 60.8322 17.402 59.5919 16.6563ZM70.264 33.0879L70.2646 33.0883C76.9868 37.0677 83.4484 40.9002 88.2413 43.743C92.332 46.1692 95.2072 47.8746 95.9917 48.3351C95.993 48.3359 95.9943 48.3366 95.9956 48.3374L97.6707 49.341L91.757 52.9846L91.7555 52.9855C75.219 63.214 62.772 70.8679 54.4523 75.9242C50.2916 78.4528 47.1671 80.3294 45.0807 81.5529C44.4635 81.9148 43.94 82.2179 43.5091 82.463C43.5294 82.1164 43.553 81.7213 43.5795 81.2812C43.689 79.4623 43.849 76.8801 44.0431 73.7888C44.4314 67.6063 44.956 59.39 45.4854 51.1753C46.0149 42.9607 46.5492 34.7483 46.957 28.5738C47.1609 25.4864 47.3332 22.9092 47.4574 21.0962C47.4944 20.5546 47.5272 20.0817 47.5552 19.6839C47.9933 19.9337 48.5806 20.2733 49.3681 20.733C52.424 22.5169 58.4303 26.0708 70.264 33.0879ZM121.181 22.4937C123.238 26.1582 128.507 35.5407 134.581 46.3352C138.457 53.223 141.973 59.4947 144.512 64.052C145.472 65.7744 146.292 67.2509 146.938 68.4229C146.158 67.9693 145.243 67.4355 144.215 66.8337C140.688 64.7692 135.837 61.9093 130.523 58.7613C125.193 55.5965 120.316 52.7114 116.751 50.6092C114.969 49.5582 113.514 48.7025 112.495 48.1055C112.097 47.8724 111.765 47.6783 111.505 47.5273C111.538 47.426 111.575 47.3134 111.616 47.1895C111.853 46.4804 112.217 45.4536 112.681 44.1817C113.608 41.6405 114.926 38.1467 116.41 34.3149C117.986 30.2444 119.366 26.8008 120.366 24.4061C120.678 23.6595 120.951 23.0183 121.181 22.4937ZM36.7958 53.4845L36.7958 53.4846C36.6625 55.5745 36.5377 57.5302 36.421 59.3606C35.6208 71.909 35.1966 78.562 34.9479 82.0905C34.8499 83.482 34.78 84.3729 34.7264 84.9427C34.6585 84.9239 34.5872 84.9041 34.5124 84.8832C33.7974 84.6831 32.8015 84.3922 31.6163 84.0389C29.2473 83.3326 26.1388 82.3819 23.046 81.4216C19.9532 80.4613 16.8798 79.4925 14.581 78.7504C13.4487 78.3848 12.5086 78.0756 11.848 77.85C12.037 77.5016 12.2748 77.0669 12.5567 76.5544C13.3446 75.1218 14.4712 73.0913 15.8244 70.6622C18.5306 65.8044 22.1406 59.3576 25.7549 52.9233C29.3691 46.4889 32.9869 40.0681 35.7088 35.2623C36.6604 33.5819 37.5022 32.0997 38.1958 30.8836C38.1326 31.958 38.0574 33.2173 37.9718 34.6327C37.6788 39.4781 37.2646 46.1496 36.7958 53.4845ZM101.629 66.5529L101.629 66.5554C101.598 78.6828 101.488 93.3199 101.359 104.949C101.295 110.763 101.226 115.824 101.159 119.442C101.125 121.247 101.093 122.69 101.062 123.687C100.797 123.535 100.496 123.359 100.159 123.162C98.7015 122.309 96.6043 121.058 94.0204 119.502C88.8537 116.391 81.7521 112.07 73.9536 107.292C60.3958 98.9769 53.3367 94.6379 49.7463 92.3205C48.4935 91.5119 47.6935 90.9684 47.195 90.5996C50.5053 88.5176 62.8635 80.8962 75.1468 73.3433C82.1157 69.0582 89.0424 64.8063 94.2403 61.6237C96.8393 60.0323 99.0055 58.7088 100.528 57.7822C100.914 57.5476 101.258 57.3386 101.557 57.1573C101.571 57.6046 101.583 58.1363 101.594 58.7401C101.629 60.7406 101.645 63.5058 101.629 66.5529ZM46.5646 90.0751C46.5622 90.072 46.5629 90.0726 46.566 90.0769C46.5654 90.0761 46.5649 90.0755 46.5646 90.0751ZM36.2971 112.767C36.8576 119.461 37.3935 125.563 37.723 129.23C37.1601 128.243 36.4995 127.081 35.7633 125.785C33.3914 121.61 30.2374 116.039 27.047 110.393C21.7719 101.059 16.4075 91.539 14.308 87.7777C16.3694 88.4134 20.0103 89.5331 24.0278 90.7527C27.0261 91.6788 29.7714 92.5401 31.7813 93.1893C32.7875 93.5143 33.6039 93.7844 34.1739 93.9821C34.3198 94.0328 34.4471 94.0778 34.5558 94.1171C34.5879 94.3663 34.6273 94.7003 34.6731 95.1143C34.7827 96.1036 34.9268 97.5235 35.0946 99.2698C35.4302 102.761 35.8597 107.544 36.2971 112.767ZM94.5823 130.165C94.5297 130.18 94.4762 130.196 94.4217 130.211C93.035 130.609 91.0681 131.16 88.7129 131.814C84.0033 133.119 77.7502 134.829 71.5011 136.523C65.2519 138.217 59.0085 139.894 54.3185 141.136C51.9731 141.757 50.0185 142.269 48.6466 142.619C48.2255 142.726 47.8612 142.818 47.5583 142.893C47.5317 142.642 47.5016 142.35 47.4683 142.019C47.344 140.785 47.1764 139.028 46.9803 136.918C46.5883 132.7 46.0834 127.077 45.5853 121.406C45.0871 115.735 44.5959 110.018 44.2312 105.612C44.0489 103.408 43.8983 101.534 43.7943 100.158C43.7664 99.7882 43.7418 99.4548 43.721 99.1613C44.4307 99.5355 45.4686 100.123 46.9582 100.999C50.8203 103.27 57.6023 107.412 69.2813 114.59L69.2825 114.591C76.7691 119.177 83.5596 123.348 88.4741 126.38C90.9316 127.896 92.9188 129.127 94.2891 129.982C94.3903 130.045 94.488 130.106 94.5823 130.165ZM108.011 141.159L110.781 144.284L91.0326 144.255H91.0311C85.2454 144.255 80.0039 144.233 76.1314 144.204C79.3488 143.308 83.403 142.194 87.4337 141.094C91.7154 139.925 95.9689 138.774 99.163 137.921C100.76 137.495 102.091 137.143 103.026 136.902C103.404 136.804 103.715 136.725 103.952 136.667C103.959 136.675 103.966 136.682 103.973 136.69C104.212 136.948 104.545 137.312 104.948 137.757C105.754 138.645 106.838 139.848 108.008 141.156C108.009 141.157 108.01 141.158 108.011 141.159ZM139.642 104.771C140.021 104.411 140.386 104.064 140.735 103.733C138.434 107.818 134.75 114.381 130.735 121.561C127.485 127.344 124.517 132.584 122.357 136.374C121.277 138.269 120.4 139.8 119.791 140.855C119.704 141.006 119.623 141.147 119.547 141.277C119.387 141.094 119.209 140.89 119.016 140.669C118.143 139.673 116.946 138.313 115.633 136.826C114.341 135.362 113.166 133.994 112.317 132.979C111.973 132.567 111.684 132.216 111.464 131.942C111.69 131.716 111.979 131.428 112.326 131.086C113.253 130.171 114.579 128.876 116.173 127.327C119.362 124.23 123.617 120.124 127.881 116.025C132.146 111.927 136.418 107.836 139.642 104.771Z"
      fill="black" stroke="black" stroke-width="2" />
    <path
      d="M177.538 152V7.99999H297.538C301.938 7.99999 305.938 9.06666 309.538 11.2C313.271 13.3333 316.204 16.2667 318.338 20C320.471 23.6 321.538 27.6 321.538 32V128C321.538 132.4 320.471 136.467 318.338 140.2C316.204 143.8 313.271 146.667 309.538 148.8C305.938 150.933 301.938 152 297.538 152H177.538ZM201.538 135.8H297.538C299.671 135.8 301.471 135.067 302.938 133.6C304.538 132 305.338 130.133 305.338 128V32C305.338 29.8667 304.538 28.0667 302.938 26.6C301.471 25 299.671 24.2 297.538 24.2H201.538C199.404 24.2 197.538 25 195.938 26.6C194.471 28.0667 193.738 29.8667 193.738 32V128C193.738 130.133 194.471 132 195.938 133.6C197.538 135.067 199.404 135.8 201.538 135.8ZM335.934 152V7.99999H352.334V152H335.934ZM390.708 152C386.308 152 382.241 150.933 378.508 148.8C374.908 146.667 372.041 143.8 369.908 140.2C367.774 136.467 366.708 132.4 366.708 128V32C366.708 27.6 367.774 23.6 369.908 20C372.041 16.2667 374.908 13.3333 378.508 11.2C382.241 9.06666 386.308 7.99999 390.708 7.99999H510.308V24.2H390.708C388.574 24.2 386.708 25 385.108 26.6C383.641 28.0667 382.908 29.8667 382.908 32V128C382.908 130.133 383.641 132 385.108 133.6C386.708 135.067 388.574 135.8 390.708 135.8H510.308V152H390.708ZM521.561 152V7.99999H652.961V24.2H537.761V71.8H630.361V88.2H537.761V135.8H652.961V152H521.561ZM721.086 152V24.2H657.086V7.99999H801.086V24.2H737.286V152H721.086ZM927.644 152L880.644 96H901.844L949.044 151.8V152H927.644ZM806.044 152V8.19999H926.044C930.444 8.19999 934.444 9.33333 938.044 11.6C941.777 13.7333 944.71 16.6 946.844 20.2C948.977 23.8 950.044 27.8 950.044 32.2V74.4C950.044 78.8 948.977 82.8 946.844 86.4C944.71 90 941.777 92.9333 938.044 95.2C934.444 97.3333 930.444 98.4 926.044 98.4H822.244V152H806.044ZM830.044 82H926.044C928.177 82 929.977 81.2667 931.444 79.8C933.044 78.3333 933.844 76.5333 933.844 74.4V32.2C933.844 30.0667 933.044 28.2667 931.444 26.8C929.977 25.2 928.177 24.4 926.044 24.4H830.044C827.91 24.4 826.044 25.2 824.444 26.8C822.977 28.2667 822.244 30.0667 822.244 32.2V74.4C822.244 76.5333 822.977 78.3333 824.444 79.8C826.044 81.2667 827.91 82 830.044 82ZM961.483 152V32C961.483 27.6 962.549 23.6 964.683 20C966.816 16.2667 969.683 13.3333 973.283 11.2C977.016 9.06666 981.083 7.99999 985.483 7.99999H1081.48C1085.88 7.99999 1089.88 9.06666 1093.48 11.2C1097.22 13.3333 1100.15 16.2667 1102.28 20C1104.42 23.6 1105.48 27.6 1105.48 32V152H1089.28V99.4H977.683V152H961.483ZM977.683 83.2H1089.28V32C1089.28 29.8667 1088.48 28.0667 1086.88 26.6C1085.42 25 1083.62 24.2 1081.48 24.2H985.483C983.349 24.2 981.483 25 979.883 26.6C978.416 28.0667 977.683 29.8667 977.683 32V83.2ZM1142.27 152C1137.87 152 1133.8 150.933 1130.07 148.8C1126.47 146.667 1123.6 143.8 1121.47 140.2C1119.34 136.467 1118.27 132.4 1118.27 128V32C1118.27 27.6 1119.34 23.6 1121.47 20C1123.6 16.2667 1126.47 13.3333 1130.07 11.2C1133.8 9.06666 1137.87 7.99999 1142.27 7.99999H1261.87V24.2H1142.27C1140.14 24.2 1138.27 25 1136.67 26.6C1135.2 28.0667 1134.47 29.8667 1134.47 32V128C1134.47 130.133 1135.2 132 1136.67 133.6C1138.27 135.067 1140.14 135.8 1142.27 135.8H1261.87V152H1142.27ZM1272.92 152V7.99999H1289.32V71.8H1335.72L1389.32 7.99999H1410.12V8.19999L1349.92 80L1410.32 151.8V152H1389.32L1335.72 88.2H1289.32V152H1272.92ZM1422.5 152V7.99999H1553.9V24.2H1438.7V71.8H1531.3V88.2H1438.7V135.8H1553.9V152H1422.5ZM1686.82 152L1639.82 96H1661.02L1708.22 151.8V152H1686.82ZM1565.22 152V8.19999H1685.22C1689.62 8.19999 1693.62 9.33333 1697.22 11.6C1700.96 13.7333 1703.89 16.6 1706.02 20.2C1708.16 23.8 1709.22 27.8 1709.22 32.2V74.4C1709.22 78.8 1708.16 82.8 1706.02 86.4C1703.89 90 1700.96 92.9333 1697.22 95.2C1693.62 97.3333 1689.62 98.4 1685.22 98.4H1581.42V152H1565.22ZM1589.22 82H1685.22C1687.36 82 1689.16 81.2667 1690.62 79.8C1692.22 78.3333 1693.02 76.5333 1693.02 74.4V32.2C1693.02 30.0667 1692.22 28.2667 1690.62 26.8C1689.16 25.2 1687.36 24.4 1685.22 24.4H1589.22C1587.09 24.4 1585.22 25.2 1583.62 26.8C1582.16 28.2667 1581.42 30.0667 1581.42 32.2V74.4C1581.42 76.5333 1582.16 78.3333 1583.62 79.8C1585.22 81.2667 1587.09 82 1589.22 82Z"
      fill="black" />
  </g>
  <defs>
    <filter id="filter0_d_2_6" x="0" y="7" width="1723.22" height="161" filterUnits="userSpaceOnUse"
      color-interpolation-filters="sRGB">
      <feFlood flood-opacity="0" result="BackgroundImageFix" />
      <feColorMatrix in="SourceAlpha" type="matrix" values="0 0 0 0 0 0 0 0 0 0 0 0 0 0 0 0 0 0 127 0"
        result="hardAlpha" />
      <feOffset dx="10" dy="10" />
      <feGaussianBlur stdDeviation="2" />
      <feComposite in2="hardAlpha" operator="out" />
      <feColorMatrix type="matrix" values="0 0 0 0 0 0 0 0 0 0 0 0 0 0 0 0 0 0 0.25 0" />
      <feBlend mode="normal" in2="BackgroundImageFix" result="effect1_dropShadow_2_6" />
      <feBlend mode="normal" in="SourceGraphic" in2="effect1_dropShadow_2_6" result="shape" />
    </filter>
  </defs>
</svg>